<svg class="svg-icon" style="width: 1em;height: 1em;vertical-align: middle;fill: currentColor;overflow: hidden;" viewBox="0 0 1024 1024" version="1.1" xmlns="http://www.w3.org/2000/svg"><path d="M511.953455 553.169455c-104.843636 0-198.935273-65.722182-239.709091-167.400728l32.418909-13.009454c35.421091 88.389818 116.805818 145.501091 207.313454 145.501091 90.554182 0 171.962182-57.181091 207.383273-145.640728l32.418909 12.986182c-40.773818 101.794909-134.888727 167.563636-239.825454 167.563637zM494.545455 623.104h34.90909v95.604364h-34.90909z" fill="#EFB041" /><path d="M494.545455 531.130182h34.90909v67.723636h-34.90909z" fill="#EFB041" /><path d="M512 616.866909m-34.909091 0a34.909091 34.909091 0 1 0 69.818182 0 34.909091 34.909091 0 1 0-69.818182 0Z" fill="#EFB041" /><path d="M512.046545 846.033455c-6.725818 0-13.009455-2.653091-17.75709-7.517091-5.050182-5.189818-14.685091-14.103273-31.697455-27.136-5.329455-4.096-10.519273-7.842909-15.453091-11.426909-24.948364-18.082909-48.523636-35.188364-48.523636-66.72291 0-38.702545 34.420364-59.322182 59.298909-59.322181 16.570182 0 39.307636 13.451636 54.085818 27.950545 14.754909-14.475636 37.492364-27.950545 54.085818-27.950545 24.855273 0 59.298909 20.619636 59.298909 59.322181 0 31.557818-23.598545 48.663273-48.570182 66.746182-4.933818 3.584-10.123636 7.330909-15.429818 11.403637-16.942545 12.962909-26.507636 21.876364-31.557818 27.089454-4.724364 4.887273-11.054545 7.563636-17.780364 7.563637z m7.214546-31.930182s0.023273 0.023273 0 0c0.023273 0.023273 0 0 0 0z m-61.416727-105.285818c-7.121455 0-24.32 7.028364-24.32 24.41309 0 13.125818 11.682909 22.225455 34.117818 38.469819 5.189818 3.746909 10.635636 7.68 16.197818 11.985454 12.683636 9.704727 21.806545 17.524364 28.183273 23.435637a394.24 394.24 0 0 1 28.136727-23.45891c5.562182-4.258909 11.008-8.215273 16.151273-11.938909 22.458182-16.267636 34.164364-25.367273 34.164363-38.493091 0-17.384727-17.198545-24.413091-24.389818-24.41309-5.585455 0.279273-24.971636 11.077818-34.094545 22.900363-9.821091 12.683636-30.184727 12.613818-39.936 0.069818-9.169455-11.915636-28.555636-22.690909-34.210909-22.970181z m92.928 88.692363h0.232727-0.232727z" fill="#EFB041" /><path d="M513.675636 980.317091l-0.139636-34.909091h0.139636z" fill="#666666" /><path d="M513.675636 980.317091h-0.139636-0.023273c-156.16-0.046545-371.083636-81.454545-508.602182-468.852364a39.842909 39.842909 0 0 1 3.374546-34.048 40.261818 40.261818 0 0 1 28.811636-19.083636c66.513455-9.704727 194.932364-50.408727 244.782546-92.113455 53.899636-45.102545 65.559273-235.473455 65.512727-305.035636a17.454545 17.454545 0 0 1 17.454545-17.477818h297.169455c4.654545 0 9.146182 1.861818 12.404364 5.189818s5.096727 7.819636 5.050181 12.474182c-0.791273 69.538909 8.890182 259.84 62.650182 304.849454 49.873455 41.704727 178.269091 82.432 244.782546 92.113455 12.078545 1.768727 22.574545 8.727273 28.811636 19.083636 6.190545 10.286545 7.424 22.714182 3.397818 34.071273-110.429091 311.016727-280.459636 468.759273-505.413818 468.829091h-0.023273zM382.114909 78.592c-1.256727 63.232-10.635636 258.117818-77.847273 314.368-59.438545 49.733818-200.098909 90.833455-262.144 99.886545a5.492364 5.492364 0 0 0-3.956363 2.536728 5.026909 5.026909 0 0 0-0.395637 4.375272C141.265455 791.272727 305.803636 945.361455 513.605818 945.408c208.616727-0.046545 367.639273-149.969455 472.599273-445.626182a4.887273 4.887273 0 0 0-0.395636-4.375273 5.306182 5.306182 0 0 0-3.956364-2.536727c-62.045091-9.053091-202.705455-50.152727-262.144-99.886545-67.234909-56.250182-74.589091-250.903273-75.147636-314.368H382.114909z" fill="#666666" /></svg>