<svg class="svg-icon" style="width: 1em; height: 1em;vertical-align: middle;fill: currentColor;overflow: hidden;" viewBox="0 0 1024 1024" version="1.1" xmlns="http://www.w3.org/2000/svg"><path d="M819.2 580.266667a307.2 307.2 0 1 1-614.4 0 307.063467 307.063467 0 0 1 185.002667-281.6l12.014933 9.352533 52.8384 41.028267A238.7968 238.7968 0 0 0 273.066667 580.266667C273.066667 712.021333 380.245333 819.2 512 819.2S750.933333 712.021333 750.933333 580.266667a238.7968 238.7968 0 0 0-181.589333-231.2192l64.853333-50.3808A307.063467 307.063467 0 0 1 819.2 580.266667z m-307.2-273.066667L682.666667 174.421333 614.4 68.266667H409.6L341.333333 174.421333l102.4 79.6672 68.266667 53.111467z" fill="" /></svg>