<svg class="svg-icon" style="width: 2.8671875em;height: 1em;vertical-align: middle;fill: currentColor;overflow: hidden;" viewBox="0 0 2936 1024" version="1.1" xmlns="http://www.w3.org/2000/svg"><path d="M1132.169014 340.732394c-81.126761 0-167.661972 27.042254-216.338028 72.112676-37.859155 34.253521-59.492958 82.929577-59.492958 133.408451 0 50.478873 21.633803 100.957746 59.492958 133.408451 52.28169 46.873239 131.605634 72.112676 216.338028 72.112676s165.859155-25.239437 216.338028-72.112676c36.056338-34.253521 57.690141-82.929577 57.690141-133.408451 0-50.478873-19.830986-99.15493-57.690141-133.408451-54.084507-48.676056-126.197183-72.112676-216.338028-72.112676z m115.380282 313.690141c-30.647887 28.84507-72.112676 45.070423-115.380282 45.070423-43.267606 0-84.732394-14.422535-115.380282-45.070423-28.84507-28.84507-43.267606-68.507042-43.267605-108.169014-1.802817-39.661972 14.422535-79.323944 43.267605-108.169014 66.704225-59.492958 165.859155-59.492958 232.563381 0 28.84507 28.84507 43.267606 68.507042 43.267605 108.169014s-16.225352 79.323944-45.070422 108.169014zM704.901408 522.816901c-14.422535-7.211268-30.647887-12.619718-45.070422-16.225352-28.84507-7.211268-95.549296-16.225352-128-19.830986-37.859155-1.802817-77.521127-7.211268-113.577465-16.225352-12.619718-3.605634-19.830986-12.619718-21.633803-25.239436 0-12.619718 9.014085-23.43662 19.830986-30.647888 32.450704-16.225352 68.507042-23.43662 104.563381-21.633802 41.464789 0 82.929577 7.211268 122.591549 23.436619 10.816901 5.408451 19.830986 10.816901 28.84507 18.028169 14.422535 12.619718 25.239437 28.84507 28.845071 48.676057h46.873239v-126.197184h-52.28169v14.422536c0 5.408451-5.408451 10.816901-14.422535 5.40845-52.28169-25.239437-109.971831-37.859155-167.661972-37.859155-48.676056 0-95.549296 9.014085-140.619718 28.845071-39.661972 18.028169-73.915493 46.873239-73.915493 95.549296 0 25.239437 9.014085 50.478873 27.042253 68.507042 21.633803 21.633803 50.478873 36.056338 79.323944 39.661972 21.633803 5.408451 70.309859 12.619718 117.183098 18.028169s91.943662 9.014085 111.774648 14.422535c14.422535 3.605634 39.661972 9.014085 39.661972 37.859155-1.802817 18.028169-12.619718 34.253521-30.647887 37.859155-28.84507 12.619718-61.295775 18.028169-93.746479 16.225352-37.859155-1.802817-75.71831-7.211268-111.774648-19.830986-25.239437-7.211268-46.873239-23.43662-64.901408-43.267606-9.014085-12.619718-12.619718-27.042254-12.619719-41.464788h-52.28169v144.225352h57.690141v-18.028169c0-3.605634 3.605634-9.014085 7.211268-9.014085 1.802817 0 3.605634 0 3.605633 1.802817 27.042254 10.816901 54.084507 21.633803 82.929578 27.042254 28.84507 7.211268 57.690141 10.816901 86.535211 10.816901 39.661972 0 79.323944-5.408451 117.183099-16.225352 25.239437-7.211268 48.676056-18.028169 68.507042-34.253521 23.43662-18.028169 37.859155-46.873239 36.056338-75.71831 0-27.042254-10.816901-54.084507-30.647887-73.915493-7.211268-10.816901-19.830986-18.028169-32.450705-25.239437zM1819.042254 409.239437h46.873239c21.633803 0 25.239437 9.014085 25.239437 28.84507l3.605633 153.239437-252.394366-227.15493h-180.28169v45.070423h39.661972c28.84507 0 30.647887 16.225352 30.647887 30.647887v214.535211c0 12.619718 0 30.647887-18.028169 30.647888h-48.676056v45.070422H1676.619718V685.070423h-52.28169c-19.830986 0-21.633803-9.014085-21.633803-28.845071V472.338028L1892.957746 731.943662h73.915493l-3.605633-292.056338c0-21.633803 1.802817-28.84507 23.436619-28.84507h46.87324v-45.070423h-214.535211v43.267606zM2432 364.169014v45.070423h30.647887c1.802817 0 3.605634 0 5.408451 1.802817 3.605634 3.605634 5.408451 9.014085 1.802817 12.619718 0 0-86.535211 100.957746-88.338028 102.760563-1.802817 1.802817-1.802817 1.802817-1.802817 0l-86.535211-102.760563c-5.408451-7.211268-1.802817-14.422535 5.40845-14.422535h30.647888v-45.070423h-252.394367v46.87324h45.070423c16.225352 0 30.647887 9.014085 39.661972 19.830985 5.408451 7.211268 135.211268 153.239437 137.014084 156.845071 3.605634 3.605634 3.605634 3.605634 3.605634 7.211267v72.112677c0 3.605634 0 7.211268-1.802817 9.014084-1.802817 3.605634-5.408451 7.211268-9.014084 9.014085H2235.492958v45.070422h250.591549v-46.873239h-59.492958c-3.605634-1.802817-7.211268-5.408451-10.816901-9.014085 0-3.605634-1.802817-7.211268-1.802817-9.014084v-72.112676c0-1.802817 0-5.408451 1.802817-7.211268l138.816901-158.647887c7.211268-12.619718 21.633803-19.830986 36.056338-18.028169h46.87324v-45.070423h-205.521127z"  /></svg>