<svg class="svg-icon" style="width: 1em;height: 1em;vertical-align: middle;fill: currentColor;overflow: hidden;" viewBox="0 0 1024 1024" version="1.1" xmlns="http://www.w3.org/2000/svg"><path d="M256 489.664a201.92 201.92 0 1 1-201.92 201.92A201.92 201.92 0 0 1 256 489.664m0-44.8a246.72 246.72 0 1 0 246.72 246.72A247.04 247.04 0 0 0 256 444.864z" fill="#322653" /><path d="M256 691.584m-201.92 0a201.92 201.92 0 1 0 403.84 0 201.92 201.92 0 1 0-403.84 0Z" fill="#FF5FC1" /><path d="M98.88 691.584A201.92 201.92 0 0 1 278.4 490.944a199.552 199.552 0 0 0-22.4-1.28 201.92 201.92 0 1 0 0 403.776 199.552 199.552 0 0 0 22.4-1.28 201.92 201.92 0 0 1-179.52-200.576z" fill="#FFFFFF" /><path d="M256 521.408a90.624 90.624 0 1 1-90.56 90.56A90.56 90.56 0 0 1 256 521.408m0-38.4a129.024 129.024 0 1 0 128.96 128.96A129.088 129.088 0 0 0 256 483.008z" fill="#322653" /><path d="M256 611.968m-90.56 0a90.56 90.56 0 1 0 181.12 0 90.56 90.56 0 1 0-181.12 0Z" fill="#43B8FF" /><path d="M256 266.752a51.584 51.584 0 1 1-51.584 51.584A51.584 51.584 0 0 1 256 266.752m0-44.8a96.384 96.384 0 1 0 96.384 96.384A96.512 96.512 0 0 0 256 221.952z" fill="#322653" /><path d="M256 318.336m-51.584 0a51.584 51.584 0 1 0 103.168 0 51.584 51.584 0 1 0-103.168 0Z" fill="#FF5FC1" /><path d="M220.416 318.336a51.584 51.584 0 0 1 43.52-51.2 54.592 54.592 0 0 0-7.936-0.384 51.584 51.584 0 0 0 0 103.168 54.592 54.592 0 0 0 7.936-0.704 51.584 51.584 0 0 1-43.52-50.88z" fill="#FFFFFF" /><path d="M239.04 382.656h33.92v99.008h-33.92zM748.416 327.936a201.92 201.92 0 1 1-201.92 201.92 201.92 201.92 0 0 1 201.92-201.92m0-44.8a246.72 246.72 0 1 0 246.656 246.72 246.976 246.976 0 0 0-246.656-246.72z" fill="#322653" /><path d="M748.416 529.856m-201.92 0a201.92 201.92 0 1 0 403.84 0 201.92 201.92 0 1 0-403.84 0Z" fill="#FF5FC1" /><path d="M906.304 529.856a201.856 201.856 0 0 0-179.2-200.64 198.4 198.4 0 0 1 22.4-1.28 201.92 201.92 0 0 1 0 403.776 214.976 214.976 0 0 1-22.4-1.216 201.92 201.92 0 0 0 179.2-200.64z" fill="#E634B5" opacity=".4" /><path d="M748.416 359.744a90.56 90.56 0 1 1-90.56 90.56 90.496 90.496 0 0 1 90.56-90.56m0-38.4a128.96 128.96 0 1 0 128.96 128.96 129.088 129.088 0 0 0-128.96-128.96z" fill="#322653" /><path d="M748.416 450.304m-90.56 0a90.56 90.56 0 1 0 181.12 0 90.56 90.56 0 1 0-181.12 0Z" fill="#43B8FF" /><path d="M748.416 105.088a51.584 51.584 0 1 1-51.584 51.2 51.52 51.52 0 0 1 51.584-51.2m0-44.8A96.384 96.384 0 1 0 844.8 156.608a96.448 96.448 0 0 0-96.384-96z" fill="#322653" /><path d="M748.416 156.608m-51.584 0a51.584 51.584 0 1 0 103.168 0 51.584 51.584 0 1 0-103.168 0Z" fill="#FF5FC1" /><path d="M731.456 220.992h33.92V320h-33.92z" fill="#322653" /><path d="M784.768 156.608a51.2 51.2 0 0 0-43.456-50.816 46.912 46.912 0 0 1 7.936-0.704 51.584 51.584 0 0 1 0 103.104 54.592 54.592 0 0 1-7.936-0.704 51.2 51.2 0 0 0 43.456-50.88z" fill="#E634B5" opacity=".4" /></svg>