<svg class="svg-icon" style="width: 1em;height: 1em;vertical-align: middle;fill: currentColor;overflow: hidden;" viewBox="0 0 1024 1024" version="1.1" xmlns="http://www.w3.org/2000/svg"><path d="M607.744 693.248c-8.192 0-15.36-4.608-18.944-12.288-4.608-10.24 0.512-22.528 10.752-26.624 83.456-35.328 137.728-116.736 137.728-207.36 0-124.416-100.864-225.28-225.28-225.28S286.72 322.56 286.72 446.976c0 90.624 53.76 172.032 137.728 207.36 10.24 4.608 15.36 16.384 10.752 26.624-4.608 10.24-16.384 15.36-26.624 10.752-98.816-41.984-162.816-138.24-162.816-245.248 0-146.944 119.296-266.24 266.24-266.24s266.24 119.296 266.24 266.24c0 107.008-64 203.776-162.816 245.248-2.56 1.024-5.12 1.536-7.68 1.536z" fill="#E64290" /><path d="M511.488 835.072c-7.68 0-15.36-3.072-21.504-8.704l-77.312-74.24c-13.824-13.312-21.504-31.744-20.992-50.688 0.512-18.944 9.728-37.376 24.576-49.664 27.136-23.04 68.608-21.504 95.232 2.56 26.624-24.576 68.608-26.112 95.232-3.072 14.848 12.288 23.552 30.208 24.064 49.152 0.512 18.944-7.168 37.376-20.992 51.2l-77.824 74.752c-4.608 5.632-12.8 8.704-20.48 8.704z m-49.152-158.72c-7.168 0-13.824 2.048-18.944 6.656-6.144 5.12-9.728 12.288-9.728 19.968s2.56 14.336 8.192 19.968l70.144 67.584 70.656-68.096c5.632-5.632 8.704-12.8 8.192-19.968 0-7.68-3.584-14.336-9.728-19.456-11.264-9.728-30.208-8.704-41.984 2.56l-12.8 12.288c-7.68 7.68-20.48 7.68-28.16 0l-12.8-12.288c-6.656-6.144-14.848-9.216-23.04-9.216z" fill="#063189" /></svg>