<svg class="svg-icon" style="width: 1em;height: 1em;vertical-align: middle;fill: currentColor;overflow: hidden;" viewBox="0 0 1024 1024" version="1.1" xmlns="http://www.w3.org/2000/svg"><path d="M440.9216 625.8304c-49.1264-48.3584-125.1264-53.5552-180.1536-14.7456V486.3296a32.3968 32.3968 0 0 0 8.832-6.0864l65.9584-65.3056c27.3024-26.9056 27.6224-71.0144 0.4928-98.56l-0.512-0.5056c-20.224-19.904-49.6128-25.0496-74.7712-15.488V139.0592c25.3568-6.0032 44.2496-28.736 44.2496-55.9296C305.024 51.36 279.264 25.6 247.488 25.6s-57.5296 25.76-57.5296 57.5296c0 27.2 18.8928 49.9328 44.256 55.9296v161.3312c-25.1584-9.5808-54.5792-4.4352-74.8288 15.4944a69.0816 69.0816 0 0 0-20.6912 49.0304 69.0048 69.0048 0 0 0 19.9936 49.2416l66.5344 65.952c2.6304 2.6752 5.7024 4.7296 8.992 6.2848V611.136c-55.0336-38.8672-131.0912-33.6896-180.2368 14.6944-54.3168 53.6-54.8992 141.0816-1.2992 195.3984l1.2992 1.2992 5.9904 5.9328 11.1616 11.0592 16.7424 16.5952 128.1856 127.0272a44 44 0 0 0 62.7776 0l162.08-160.4672c54.3552-53.5552 55.0016-141.0432 1.4464-195.3984a61.3952 61.3952 0 0 0-1.44-1.4464zM177.632 395.5648c-8.064-8.1728-12.4672-18.9952-12.384-30.4704s4.6144-22.24 12.7808-30.2912a44.0512 44.0512 0 0 1 30.9888-12.672c10.5728 0 21.1584 3.7632 29.568 11.3408l8.8832 8.0128 8.8832-8.0128a44.224 44.224 0 0 1 60.5632 1.3312l0.448 0.448c16.6208 16.8832 16.4224 44.1472-0.4736 60.8L250.7328 461.5488a4.6528 4.6528 0 0 1-3.2576 1.3376c-0.896 0.1024-2.0992-0.16-3.4304-1.5104L177.632 395.5648z m166.0544 411.0784l-80.6016 79.8016-0.2752 0.2752a21.888 21.888 0 0 1-30.944-0.2752l-63.7504-63.1744-8.3264-8.2496-5.5488-5.4976-2.976-2.9504a30.784 30.784 0 0 1-0.6464-0.6464c-26.656-27.0144-26.368-70.5152 0.6464-97.1712a70.176 70.176 0 0 1 96.2112-2.1184 70.1632 70.1632 0 0 1 96.2112 2.1184l0.7168 0.7168c26.6368 27.0336 26.3168 70.5344-0.7168 97.1712z" fill="#0D3F70" /><path d="M343.6864 708.7488a70.176 70.176 0 0 0-96.2112-2.1184 70.1632 70.1632 0 0 0-96.2112 2.1184c-27.0144 26.656-27.3024 70.1632-0.6464 97.1712l0.6464 0.6464 2.976 2.9504 5.5488 5.4976 8.3264 8.2496 63.7504 63.1744a21.888 21.888 0 0 0 30.944 0.2752l0.2752-0.2752 80.6016-79.8016c27.0336-26.6368 27.3536-70.144 0.7168-97.1712l-0.7168-0.7168z" fill="#D34D5B" /><path d="M971.3792 627.2704l-1.4464-1.4464c-49.12-48.3584-125.1264-53.5552-180.1536-14.7456V486.3296a32.3968 32.3968 0 0 0 8.832-6.0864l65.9584-65.3056c27.3024-26.9056 27.6224-71.0144 0.4928-98.56l-0.512-0.5056c-20.224-19.904-49.6128-25.0496-74.7712-15.488V139.0592c25.3568-6.0032 44.2496-28.736 44.2496-55.9296a57.5296 57.5296 0 1 0-115.0592 0c0 27.2 18.8928 49.9328 44.2624 55.9296v161.3312c-25.1584-9.5808-54.5792-4.4352-74.8288 15.4944a69.0816 69.0816 0 0 0-20.6912 49.0304 69.0048 69.0048 0 0 0 19.9936 49.2416l66.5344 65.952c2.6304 2.6752 5.7024 4.7296 8.992 6.2848V611.136c-55.0336-38.8672-131.0912-33.6896-180.2368 14.6944-54.3168 53.6-54.8992 141.0816-1.2992 195.3984l1.2992 1.2992 5.9904 5.9328 11.1616 11.0592 16.7424 16.5952 128.1856 127.0272a44 44 0 0 0 62.7776 0l162.08-160.4672c54.3616-53.5616 55.008-141.0432 1.4464-195.4048z m-264.7296-231.7056a42.6688 42.6688 0 0 1-12.384-30.4704 42.6496 42.6496 0 0 1 12.7808-30.2912 44.0512 44.0512 0 0 1 30.9888-12.672c10.5728 0 21.1584 3.7632 29.568 11.3408l8.8832 8.0128 8.8832-8.0128a44.224 44.224 0 0 1 60.5632 1.3312l0.448 0.448c16.6208 16.8832 16.4224 44.1472-0.4736 60.8l-66.1632 65.5104a4.6528 4.6528 0 0 1-3.2576 1.3376c-0.896 0.1024-2.0992-0.16-3.4304-1.5104l-66.4064-65.824z m166.048 411.0784l-80.6016 79.8016-0.2752 0.2752a21.888 21.888 0 0 1-30.944-0.2752l-63.7504-63.1744-8.3264-8.2496-5.5488-5.4976-2.976-2.9504a30.784 30.784 0 0 1-0.6464-0.6464c-26.656-27.0144-26.368-70.5152 0.6464-97.1712a70.176 70.176 0 0 1 96.2112-2.1184 70.1632 70.1632 0 0 1 96.2112 2.1184l0.7168 0.7168c26.6368 27.0336 26.3168 70.5344-0.7168 97.1712z" fill="#0D3F70" /><path d="M872.6976 708.7488a70.176 70.176 0 0 0-96.2112-2.1184 70.1632 70.1632 0 0 0-96.2112 2.1184c-27.0144 26.656-27.3024 70.1632-0.6464 97.1712l0.6464 0.6464 2.976 2.9504 5.5488 5.4976 8.3264 8.2496 63.7504 63.1744a21.888 21.888 0 0 0 30.944 0.2752l0.2752-0.2752 80.6016-79.8016c27.0336-26.6368 27.3536-70.144 0.7168-97.1712l-0.7168-0.7168z" fill="#D34D5B" /></svg>