<svg class="svg-icon" style="width: 1em;height: 1em;vertical-align: middle;fill: currentColor;overflow: hidden;" viewBox="0 0 1024 1024" version="1.1" xmlns="http://www.w3.org/2000/svg"><path d="M428.6 612.9a24.3 23.8 0 1 0 48.6 0 24.3 23.8 0 1 0-48.6 0Z" fill="#FFD629" /><path d="M367.2 597.7a24.3 23.8 0 1 0 48.6 0 24.3 23.8 0 1 0-48.6 0Z" fill="#FFD629" /><path d="M305.7 572.8a24.3 23.8 0 1 0 48.6 0 24.3 23.8 0 1 0-48.6 0Z" fill="#FFD629" /><path d="M247.8 534.5a24.3 23.8 0 1 0 48.6 0 24.3 23.8 0 1 0-48.6 0Z" fill="#FFD629" /><path d="M208.6 480.2a24.3 23.8 0 1 0 48.6 0 24.3 23.8 0 1 0-48.6 0Z" fill="#FFD629" /><path d="M196.2 418.7a24.3 23.8 0 1 0 48.6 0 24.3 23.8 0 1 0-48.6 0Z" fill="#FFD629" /><path d="M211.3 354.6a24.3 23.8 0 1 0 48.6 0 24.3 23.8 0 1 0-48.6 0Z" fill="#FFD629" /><path d="M251.4 303.8a24.3 23.8 0 1 0 48.6 0 24.3 23.8 0 1 0-48.6 0Z" fill="#FFD629" /><path d="M303 266.4a24.3 23.8 0 1 0 48.6 0 24.3 23.8 0 1 0-48.6 0Z" fill="#FFD629" /><path d="M366.3 242.4a24.3 23.8 0 1 0 48.6 0 24.3 23.8 0 1 0-48.6 0Z" fill="#FFD629" /><path d="M430.4 227.2a24.3 23.8 0 1 0 48.6 0 24.3 23.8 0 1 0-48.6 0Z" fill="#FFD629" /><path d="M497.2 221a24.3 23.8 0 1 0 48.6 0 24.3 23.8 0 1 0-48.6 0Z" fill="#FFD629" /><path d="M558.1 225.4a24.3 23.8 0 1 0 48.6 0 24.3 23.8 0 1 0-48.6 0Z" fill="#FFD629" /><path d="M623.4 239.2a24.3 23.8 0 1 0 48.6 0 24.3 23.8 0 1 0-48.6 0Z" fill="#FFD629" /><path d="M690.3 267.8a24.3 23.8 0 1 0 48.6 0 24.3 23.8 0 1 0-48.6 0Z" fill="#FFD629" /><path d="M739.6 303.4a24.3 23.8 0 1 0 48.6 0 24.3 23.8 0 1 0-48.6 0Z" fill="#FFD629" /><path d="M786 359.2a24.3 23.8 0 1 0 48.6 0 24.3 23.8 0 1 0-48.6 0Z" fill="#FFD629" /><path d="M802 426a24.3 23.8 0 1 0 48.6 0 24.3 23.8 0 1 0-48.6 0Z" fill="#FFD629" /><path d="M786 487.6a24.3 23.8 0 1 0 48.6 0 24.3 23.8 0 1 0-48.6 0Z" fill="#FFD629" /><path d="M741 537.7a24.3 23.8 0 1 0 48.6 0 24.3 23.8 0 1 0-48.6 0Z" fill="#FFD629" /><path d="M685.9 575.4a24.3 23.8 0 1 0 48.6 0 24.3 23.8 0 1 0-48.6 0Z" fill="#FFD629" /><path d="M625 600.8a24.3 23.8 0 1 0 48.6 0 24.3 23.8 0 1 0-48.6 0Z" fill="#FFD629" /><path d="M561.1 616.1a24.3 23.8 0 1 0 48.6 0 24.3 23.8 0 1 0-48.6 0Z" fill="#FFD629" /><path d="M502.3 617.5a24.3 23.8 0 1 0 48.6 0 24.3 23.8 0 1 0-48.6 0Z" fill="#FFD629" /><path d="M512.3 253c-22.8 0-41.3-18.5-41.3-41.3s18.5-41.3 41.3-41.3 41.3 18.5 41.3 41.3-18.5 41.3-41.3 41.3z m0-65.2c-13.2 0-23.9 10.7-23.9 23.9s10.7 23.9 23.9 23.9 23.9-10.7 23.9-23.9-10.7-23.9-23.9-23.9z" fill="#666666" /><path d="M577.5 258.1c-22.8 0-41.3-18.5-41.3-41.3 0-22.8 18.5-41.3 41.3-41.3 22.8 0 41.3 18.5 41.3 41.3-0.1 22.8-18.6 41.3-41.3 41.3z m0-65.1c-13.2 0-23.9 10.7-23.9 23.9s10.7 23.9 23.9 23.9 23.9-10.7 23.9-23.9c-0.1-13.2-10.8-23.9-23.9-23.9z" fill="#666666" /><path d="M641.4 273.6c-22.8 0-41.3-18.5-41.3-41.3s18.5-41.3 41.3-41.3 41.3 18.5 41.3 41.3-18.5 41.3-41.3 41.3z m0-65.2c-13.2 0-23.9 10.7-23.9 23.9s10.7 23.9 23.9 23.9 23.9-10.7 23.9-23.9-10.7-23.9-23.9-23.9z" fill="#666666" /><path d="M703 298.5c-22.8 0-41.3-18.5-41.3-41.3 0-22.8 18.5-41.3 41.3-41.3s41.3 18.5 41.3 41.3c0 22.8-18.5 41.3-41.3 41.3z m0-65.2c-13.2 0-23.9 10.7-23.9 23.9s10.7 23.9 23.9 23.9 23.9-10.7 23.9-23.9c0-13.1-10.7-23.9-23.9-23.9z" fill="#666666" /><path d="M758 336.3c-22.8 0-41.3-18.5-41.3-41.3 0-22.8 18.5-41.3 41.3-41.3 22.8 0 41.3 18.5 41.3 41.3 0 22.8-18.5 41.3-41.3 41.3z m0-65.1c-13.2 0-23.9 10.7-23.9 23.9S744.8 319 758 319s23.9-10.7 23.9-23.9-10.7-23.9-23.9-23.9z" fill="#666666" /><path d="M799.6 388.9c-22.8 0-41.3-18.5-41.3-41.3 0-22.8 18.5-41.3 41.3-41.3 22.8 0 41.3 18.5 41.3 41.3 0 22.7-18.5 41.3-41.3 41.3z m0-65.2c-13.2 0-23.9 10.7-23.9 23.9s10.7 23.9 23.9 23.9 23.9-10.7 23.9-23.9-10.7-23.9-23.9-23.9z" fill="#666666" /><path d="M815.4 453.1c-22.8 0-41.3-18.5-41.3-41.3 0-22.8 18.5-41.3 41.3-41.3 22.8 0 41.3 18.5 41.3 41.3 0 22.8-18.5 41.3-41.3 41.3z m0-65.2c-13.2 0-23.9 10.7-23.9 23.9s10.7 23.9 23.9 23.9 23.9-10.7 23.9-23.9-10.7-23.9-23.9-23.9zM446.5 258.1c-22.8 0-41.3-18.5-41.3-41.3 0-22.8 18.5-41.3 41.3-41.3 22.8 0 41.3 18.5 41.3 41.3 0 22.8-18.5 41.3-41.3 41.3z m0-65.1c-13.2 0-23.9 10.7-23.9 23.9s10.7 23.9 23.9 23.9 23.9-10.7 23.9-23.9-10.7-23.9-23.9-23.9z" fill="#666666" /><path d="M382.6 273.6c-22.8 0-41.3-18.5-41.3-41.3s18.5-41.3 41.3-41.3c22.8 0 41.3 18.5 41.3 41.3s-18.6 41.3-41.3 41.3z m0-65.2c-13.2 0-23.9 10.7-23.9 23.9s10.7 23.9 23.9 23.9 23.9-10.7 23.9-23.9c-0.1-13.2-10.8-23.9-23.9-23.9z" fill="#666666" /><path d="M321 298.5c-22.8 0-41.3-18.5-41.3-41.3 0-22.8 18.5-41.3 41.3-41.3 22.8 0 41.3 18.5 41.3 41.3 0 22.8-18.6 41.3-41.3 41.3z m0-65.2c-13.2 0-23.9 10.7-23.9 23.9s10.7 23.9 23.9 23.9 23.9-10.7 23.9-23.9c-0.1-13.1-10.8-23.9-23.9-23.9z" fill="#666666" /><path d="M266 336.3c-22.8 0-41.3-18.5-41.3-41.3 0-22.8 18.5-41.3 41.3-41.3 22.8 0 41.3 18.5 41.3 41.3-0.1 22.8-18.6 41.3-41.3 41.3z m0-65.1c-13.2 0-23.9 10.7-23.9 23.9S252.8 319 266 319s23.9-10.7 23.9-23.9-10.8-23.9-23.9-23.9z" fill="#666666" /><path d="M224.4 388.9c-22.8 0-41.3-18.5-41.3-41.3 0-22.8 18.5-41.3 41.3-41.3s41.3 18.5 41.3 41.3c0 22.7-18.5 41.3-41.3 41.3z m0-65.2c-13.2 0-23.9 10.7-23.9 23.9s10.7 23.9 23.9 23.9 23.9-10.7 23.9-23.9-10.7-23.9-23.9-23.9zM512.3 652.5c-22.8 0-41.3-18.5-41.3-41.3s18.5-41.3 41.3-41.3 41.3 18.5 41.3 41.3-18.5 41.3-41.3 41.3z m0-65.2c-13.2 0-23.9 10.7-23.9 23.9s10.7 23.9 23.9 23.9 23.9-10.7 23.9-23.9-10.7-23.9-23.9-23.9z" fill="#666666" /><path d="M577.5 647.3c-22.8 0-41.3-18.5-41.3-41.3 0-22.8 18.5-41.3 41.3-41.3 22.8 0 41.3 18.5 41.3 41.3-0.1 22.8-18.6 41.3-41.3 41.3z m0-65.1c-13.2 0-23.9 10.7-23.9 23.9s10.7 23.9 23.9 23.9 23.9-10.7 23.9-23.9-10.8-23.9-23.9-23.9z" fill="#666666" /><path d="M641.4 631.9c-22.8 0-41.3-18.5-41.3-41.3 0-22.8 18.5-41.3 41.3-41.3s41.3 18.5 41.3 41.3c0 22.8-18.5 41.3-41.3 41.3z m0-65.2c-13.2 0-23.9 10.7-23.9 23.9s10.7 23.9 23.9 23.9 23.9-10.7 23.9-23.9-10.7-23.9-23.9-23.9z" fill="#666666" /><path d="M703 607c-22.8 0-41.3-18.5-41.3-41.3 0-22.8 18.5-41.3 41.3-41.3s41.3 18.5 41.3 41.3c0 22.7-18.5 41.3-41.3 41.3z m0-65.2c-13.2 0-23.9 10.7-23.9 23.9s10.7 23.9 23.9 23.9 23.9-10.7 23.9-23.9-10.7-23.9-23.9-23.9z" fill="#666666" /><path d="M758 569.1c-22.8 0-41.3-18.5-41.3-41.3 0-22.8 18.5-41.3 41.3-41.3 22.8 0 41.3 18.5 41.3 41.3 0 22.8-18.5 41.3-41.3 41.3z m0-65.1c-13.2 0-23.9 10.7-23.9 23.9s10.7 23.9 23.9 23.9 23.9-10.7 23.9-23.9S771.2 504 758 504z" fill="#666666" /><path d="M799.6 516.6c-22.8 0-41.3-18.5-41.3-41.3 0-22.8 18.5-41.3 41.3-41.3 22.8 0 41.3 18.5 41.3 41.3 0 22.8-18.5 41.3-41.3 41.3z m0-65.2c-13.2 0-23.9 10.7-23.9 23.9s10.7 23.9 23.9 23.9 23.9-10.7 23.9-23.9c0-13.1-10.7-23.9-23.9-23.9zM446.5 647.3c-22.8 0-41.3-18.5-41.3-41.3 0-22.8 18.5-41.3 41.3-41.3 22.8 0 41.3 18.5 41.3 41.3 0 22.8-18.5 41.3-41.3 41.3z m0-65.1c-13.2 0-23.9 10.7-23.9 23.9s10.7 23.9 23.9 23.9 23.9-10.7 23.9-23.9-10.7-23.9-23.9-23.9z" fill="#666666" /><path d="M382.6 631.9c-22.8 0-41.3-18.5-41.3-41.3 0-22.8 18.5-41.3 41.3-41.3 22.8 0 41.3 18.5 41.3 41.3 0 22.8-18.6 41.3-41.3 41.3z m0-65.2c-13.2 0-23.9 10.7-23.9 23.9s10.7 23.9 23.9 23.9 23.9-10.7 23.9-23.9-10.8-23.9-23.9-23.9z" fill="#666666" /><path d="M321 607c-22.8 0-41.3-18.5-41.3-41.3 0-22.8 18.5-41.3 41.3-41.3 22.8 0 41.3 18.5 41.3 41.3 0 22.7-18.6 41.3-41.3 41.3z m0-65.2c-13.2 0-23.9 10.7-23.9 23.9s10.7 23.9 23.9 23.9 23.9-10.7 23.9-23.9-10.8-23.9-23.9-23.9z" fill="#666666" /><path d="M266 569.1c-22.8 0-41.3-18.5-41.3-41.3 0-22.8 18.5-41.3 41.3-41.3 22.8 0 41.3 18.5 41.3 41.3-0.1 22.8-18.6 41.3-41.3 41.3z m0-65.1c-13.2 0-23.9 10.7-23.9 23.9s10.7 23.9 23.9 23.9 23.9-10.7 23.9-23.9c-0.1-13.2-10.8-23.9-23.9-23.9z" fill="#666666" /><path d="M224.4 516.6c-22.8 0-41.3-18.5-41.3-41.3 0-22.8 18.5-41.3 41.3-41.3s41.3 18.5 41.3 41.3c0 22.8-18.5 41.3-41.3 41.3z m0-65.2c-13.2 0-23.9 10.7-23.9 23.9s10.7 23.9 23.9 23.9 23.9-10.7 23.9-23.9c0-13.1-10.7-23.9-23.9-23.9z" fill="#666666" /><path d="M208.6 453.1c-22.8 0-41.3-18.5-41.3-41.3 0-22.8 18.5-41.3 41.3-41.3s41.3 18.5 41.3 41.3c-0.1 22.8-18.6 41.3-41.3 41.3z m0-65.2c-13.2 0-23.9 10.7-23.9 23.9s10.7 23.9 23.9 23.9 23.9-10.7 23.9-23.9-10.8-23.9-23.9-23.9z" fill="#666666" /><path d="M508.3 844.9c-9.6 0-17.5-7.8-17.5-17.5v-9.3h-3.3c-9.6 0-17.4-7.8-17.4-17.4 0-6.6 3.7-12.4 9.2-15.4-5.5-2.9-9.2-8.7-9.2-15.4 0-9.6 7.8-17.4 17.4-17.4h3.3v-4.2c-19.8-8.5-33.1-28.3-33.1-50.2 0-30.1 24.5-54.6 54.6-54.6s54.6 24.5 54.6 54.6c0 21.9-13.3 41.7-33.1 50.2v79.1c0 9.6-7.8 17.5-17.5 17.5h-8z m4-160c-7.3 0-13.2 5.9-13.2 13.2 0 7.3 5.9 13.2 13.2 13.2 7.3 0 13.2-5.9 13.2-13.2 0.1-7.3-5.9-13.2-13.2-13.2z" fill="#B5DFFD" /><path d="M512.3 652.3c25.3 0 45.9 20.5 45.9 45.9 0 20.9-14 38.6-33.1 44.1v85.2c0 4.8-4 8.8-8.8 8.8h-7.9c-4.8 0-8.8-4-8.8-8.8v-18h-12c-4.8 0-8.7-3.9-8.7-8.7 0-4.8 3.9-8.7 8.7-8.7h12v-13.3h-12c-4.8 0-8.7-3.9-8.7-8.7 0-4.8 3.9-8.7 8.7-8.7h12v-19c-19.1-5.5-33.1-23.2-33.1-44.1-0.1-25.5 20.5-46 45.8-46m0 67.8c12.1 0 22-9.8 22-22 0-12.1-9.8-22-22-22-12.1 0-22 9.8-22 22 0.1 12.2 9.9 22 22 22m0-85.3c-34.9 0-63.3 28.4-63.3 63.3 0 19.8 9.4 38.1 24.4 49.8-7.2 4.7-12 12.8-12 22 0 5.7 1.9 11 5 15.4-3.1 4.3-5 9.6-5 15.4 0 12.6 8.9 23.1 20.8 25.6v1.1c0 14.4 11.8 26.2 26.2 26.2h7.9c14.4 0 26.2-11.8 26.2-26.2v-73.6c20-10.9 33.1-32.2 33.1-55.6 0-35-28.4-63.4-63.3-63.4z m0 67.9c-2.5 0-4.5-2-4.5-4.5s2-4.5 4.5-4.5 4.5 2 4.5 4.5c0.1 2.4-2 4.5-4.5 4.5z" fill="#666666" /></svg>